<?xml version="1.0" standalone="no"?>
<!DOCTYPE svg PUBLIC "-//W3C//DTD SVG 20010904//EN"
 "http://www.w3.org/TR/2001/REC-SVG-20010904/DTD/svg10.dtd">
<svg version="1.0" xmlns="http://www.w3.org/2000/svg"
 width="500.000000pt" height="500.000000pt" viewBox="0 0 500.000000 500.000000"
 preserveAspectRatio="xMidYMid meet">
<metadata>
Created by potrace 1.16, written by Peter Selinger 2001-2019
</metadata>
<g transform="translate(0.000000,500.000000) scale(0.100000,-0.100000)"
fill="#000000" stroke="none">
<path d="M0 2500 l0 -2500 2500 0 2500 0 0 2500 0 2500 -2500 0 -2500 0 0
-2500z m2363 1268 c102 -45 175 -44 276 1 67 30 81 33 151 29 64 -2 84 -8 125
-33 27 -17 64 -51 82 -75 80 -110 130 -143 244 -159 111 -15 150 -32 202 -83
59 -59 75 -97 87 -199 12 -101 47 -171 109 -213 122 -84 161 -147 161 -259 0
-56 -6 -82 -32 -140 -26 -57 -32 -85 -32 -137 0 -52 6 -80 32 -137 26 -58 32
-84 32 -140 0 -112 -39 -175 -161 -259 -62 -42 -97 -112 -109 -213 -20 -175
-104 -258 -287 -281 -97 -12 -158 -43 -201 -101 -70 -95 -93 -118 -144 -143
-77 -39 -166 -37 -261 6 -100 45 -174 45 -274 0 -58 -26 -84 -32 -140 -32
-113 0 -174 38 -259 161 -43 62 -112 97 -215 109 -45 5 -101 19 -125 31 -88
42 -154 150 -154 251 0 45 -29 126 -58 163 -12 15 -49 48 -84 73 -89 67 -122
124 -126 222 -4 70 -1 84 29 151 46 103 46 175 0 278 -30 67 -33 81 -29 151 2
64 8 84 33 125 17 27 51 64 75 82 116 85 147 135 160 258 10 94 24 129 82 191
44 48 124 84 187 84 92 0 179 45 234 122 80 112 140 148 250 148 55 0 82 -6
140 -32z"/>
<path d="M2546 3556 c6 -26 -52 -154 -89 -193 -24 -27 -23 -28 25 -37 35 -6
60 6 38 19 -14 9 -13 42 3 47 6 2 28 2 47 -2 32 -5 35 -8 35 -40 l0 -35 58 -3
c31 -2 57 0 57 3 0 3 -6 16 -14 28 -8 12 -26 65 -41 117 -14 52 -34 101 -43
108 -8 6 -31 12 -49 12 -30 0 -33 -2 -27 -24z m49 -103 c6 -30 5 -33 -19 -33
-34 0 -38 12 -20 56 17 41 26 36 39 -23z"/>
<path d="M2155 3525 c-93 -33 -112 -146 -36 -219 37 -36 89 -43 146 -21 54 20
63 35 63 98 -1 51 -3 52 -59 35 -42 -12 -51 -33 -19 -43 23 -7 27 -40 5 -49
-63 -24 -151 122 -100 164 13 11 20 9 43 -13 29 -28 66 -35 77 -16 14 22 -5
57 -36 68 -38 13 -35 13 -84 -4z"/>
<path d="M2910 3473 c0 -34 -67 -152 -95 -167 -11 -6 -22 -12 -25 -14 -9 -6
45 -42 63 -42 14 0 17 5 12 19 -6 19 35 113 54 125 5 3 17 -29 26 -72 27 -126
36 -153 46 -150 6 2 31 42 57 88 27 48 57 89 70 95 30 13 28 22 -10 45 -36 22
-48 19 -41 -11 5 -19 -25 -89 -38 -89 -7 0 -18 43 -34 131 -5 24 -15 41 -35
52 -39 24 -50 21 -50 -10z"/>
<path d="M1822 3335 c-37 -16 -144 -114 -137 -125 3 -4 17 -10 32 -14 37 -9
123 -108 123 -141 0 -35 20 -31 63 13 42 43 45 52 19 52 -10 0 -28 10 -40 23
-17 18 -19 26 -10 35 17 17 36 15 74 -9 39 -24 67 -19 91 17 18 29 14 36 -24
40 -80 8 -91 14 -90 50 2 57 -44 83 -101 59z m32 -71 c9 -8 16 -21 16 -28 0
-16 -20 -36 -36 -36 -17 0 -57 57 -49 70 9 15 52 12 69 -6z"/>
<path d="M3256 3227 c-8 -32 -122 -127 -152 -127 -13 0 -24 -3 -24 -6 0 -11
71 -94 80 -94 4 0 12 13 18 28 12 35 112 122 140 122 37 0 35 21 -4 61 -21 21
-41 39 -45 39 -4 0 -9 -10 -13 -23z"/>
<path d="M2371 3095 c-404 -92 -604 -550 -394 -903 200 -337 654 -401 937
-132 132 126 190 260 190 440 0 80 -5 122 -21 175 -60 191 -214 347 -403 406
-85 27 -225 33 -309 14z m311 -197 c226 -108 322 -384 209 -598 -140 -264
-492 -317 -701 -107 -134 135 -165 324 -82 500 50 107 173 207 290 237 20 5
76 8 124 6 75 -3 98 -8 160 -38z"/>
<path d="M2604 2668 c-19 -23 -19 -23 2 -6 16 14 23 15 34 5 12 -10 12 -9 1 6
-17 21 -14 21 -37 -5z"/>
<path d="M2400 2640 c-17 -11 -12 -17 15 -20 41 -4 48 -1 31 15 -17 17 -25 18
-46 5z"/>
<path d="M2520 2590 c-9 -6 -10 -10 -3 -10 6 0 15 5 18 10 8 12 4 12 -15 0z"/>
<path d="M2756 2539 c-56 -49 -73 -59 -93 -54 -14 3 -22 2 -19 -3 17 -29 46
-17 117 49 92 85 88 91 -5 8z"/>
<path d="M2436 2583 c-4 -5 -12 -9 -17 -9 -5 -1 -13 -2 -17 -3 -5 0 -14 -13
-21 -27 -10 -23 -9 -29 9 -46 30 -28 25 -38 -19 -38 -45 0 -55 -10 -71 -69
-10 -39 -9 -45 9 -62 20 -19 21 -19 40 0 10 10 22 32 26 49 5 24 13 31 40 36
32 6 58 33 53 53 -1 4 2 27 6 51 10 52 -13 90 -38 65z"/>
<path d="M2570 2467 c-18 -34 -19 -38 -4 -22 10 11 27 27 36 36 14 13 15 18 4
22 -8 3 -22 -11 -36 -36z"/>
<path d="M2414 2375 c-35 -46 -28 -52 12 -9 17 19 28 37 23 39 -4 3 -20 -11
-35 -30z"/>
<path d="M2505 2400 l-30 -6 28 -6 c15 -3 30 -1 33 4 9 13 3 15 -31 8z"/>
<path d="M2286 2287 c-151 -54 -138 -57 223 -57 281 0 320 2 315 15 -5 13 -47
15 -288 16 -279 1 -281 1 -229 18 29 9 58 22 65 29 15 15 18 16 -86 -21z"/>
<path d="M1580 3012 c-75 -37 -106 -146 -59 -206 48 -62 135 -75 190 -29 86
73 74 189 -24 233 -52 24 -63 24 -107 2z m128 -98 c27 -18 29 -59 3 -74 -43
-23 -139 -4 -169 33 -20 24 -5 56 31 65 36 10 101 -2 135 -24z"/>
<path d="M3316 2966 c-48 -29 -65 -59 -66 -114 0 -37 6 -50 34 -78 24 -24 43
-34 64 -34 36 0 52 17 25 27 -51 18 -68 67 -39 109 18 26 90 58 111 51 26 -11
29 -37 6 -67 -26 -36 -27 -56 -1 -70 49 -26 81 76 43 141 -20 33 -68 59 -110
59 -15 0 -46 -11 -67 -24z"/>
<path d="M1565 2486 c-40 -29 -14 -106 37 -106 24 0 58 35 58 60 0 25 -34 60
-58 60 -10 0 -27 -6 -37 -14z"/>
<path d="M3360 2480 c-11 -11 -20 -29 -20 -40 0 -25 34 -60 58 -60 32 0 55 25
55 60 0 56 -54 79 -93 40z"/>
<path d="M3104 1949 c-32 -28 -61 -53 -63 -55 -2 -2 -1 -11 3 -20 6 -15 9 -15
29 5 13 11 28 21 34 21 5 0 33 -27 62 -60 49 -56 73 -71 85 -52 2 4 -22 38
-55 76 l-60 68 20 22 c21 23 28 46 13 46 -5 0 -35 -23 -68 -51z"/>
<path d="M1795 1918 c-33 -39 -63 -77 -68 -84 -10 -17 77 -84 109 -84 30 0 54
25 54 56 0 14 4 23 8 20 5 -3 18 2 30 10 37 26 29 65 -23 113 -24 22 -46 41
-47 40 -2 0 -30 -32 -63 -71z m113 -16 c5 -9 7 -23 5 -29 -7 -19 -48 -16 -66
5 -15 16 -15 20 -1 40 12 18 19 20 34 12 11 -6 24 -18 28 -28z m-58 -73 c9
-15 8 -24 -1 -35 -16 -19 -23 -18 -54 9 -24 21 -25 23 -10 45 13 18 20 20 35
12 11 -6 24 -20 30 -31z"/>
<path d="M2832 1780 c-13 -12 -22 -33 -22 -50 0 -40 34 -62 91 -58 39 3 44 0
47 -19 3 -17 -3 -24 -24 -29 -15 -4 -34 -2 -43 3 -20 12 -41 6 -41 -12 0 -22
39 -38 73 -31 61 12 91 61 67 107 -9 15 -22 19 -70 19 -62 0 -75 10 -58 44 8
15 17 17 49 12 30 -5 39 -3 39 8 0 31 -76 36 -108 6z"/>
<path d="M2124 1781 c-48 -21 -85 -101 -69 -151 10 -30 63 -60 108 -60 93 0
141 144 64 194 -30 20 -77 28 -103 17z m92 -56 c22 -33 9 -80 -28 -108 -50
-37 -110 5 -94 68 16 64 90 88 122 40z"/>
<path d="M2513 1723 c-37 -7 -73 -59 -73 -104 0 -45 21 -94 45 -103 9 -3 36
-6 59 -6 52 0 91 33 100 85 7 37 -10 91 -36 112 -18 15 -64 23 -95 16z m76
-47 c7 -8 14 -29 17 -48 11 -66 -61 -114 -108 -71 -25 23 -24 87 2 113 23 23
72 26 89 6z"/>
</g>
</svg>
